<svg width="24" height="24" viewBox="0 0 24 24" fill="none" xmlns="http://www.w3.org/2000/svg">
<path id="Path" d="M22.8831 19.0632L19.4924 15.4942C19.0483 15.0313 18.2523 14.9985 17.7696 15.4298C17.3313 15.8203 17.0004 16.2422 16.7101 16.6127C16.4197 16.9831 16.0893 17.4001 15.9038 17.3958C15.8331 17.3985 15.7585 17.3907 15.6839 17.3828C12.3073 17.028 6.5488 10.8247 6.61919 7.61948C6.62275 7.44221 7.06196 7.13817 7.44723 6.86909C7.83194 6.60502 8.26564 6.30549 8.67512 5.9019C9.16263 5.4253 9.17531 4.63489 8.70456 4.13879L5.26439 0.513833C4.82032 0.0509852 4.02931 0.0186183 3.54263 0.43946C1.53879 2.18789 0.590537 4.65629 0.557335 6.21599C0.426946 12.049 10.4535 22.898 16.5701 23.5409C16.7293 23.5576 16.8845 23.5638 17.0397 23.57C18.5801 23.5999 21.0683 22.7449 22.8817 20.7988C23.3404 20.309 23.34 19.5477 22.8831 19.0632Z" fill="#B8C0D2"/>
</svg>
