<svg width="32" height="32" viewBox="0 0 32 32" fill="none" xmlns="http://www.w3.org/2000/svg">
<path fill-rule="evenodd" clip-rule="evenodd" d="M23.43 3.92799C24.6632 2.69067 26.8125 2.69067 28.0441 3.92799C28.6614 4.54589 29 5.36667 29 6.24125C29 7.11583 28.6599 7.93815 28.0441 8.55605L17.1018 19.5352C16.9976 19.6397 16.8674 19.715 16.7234 19.7504L12.1093 20.9078C12.0435 20.9247 11.9776 20.9324 11.9117 20.9324C11.6988 20.9324 11.4904 20.8478 11.3357 20.6926C11.1335 20.4882 11.0523 20.193 11.1213 19.9148L12.2732 15.2868C12.3085 15.1438 12.3835 15.0117 12.4877 14.9071L23.43 3.92799ZM13.0331 18.9895L16.1091 18.2179L25.1611 9.13552L22.854 6.82072L13.8021 15.9031L13.0331 18.9895ZM26.8906 7.39865L26.3146 7.97658L24.0076 5.66178L24.5835 5.08385C25.1994 4.46596 26.2748 4.46596 26.8906 5.08385C27.1985 5.3928 27.3685 5.80319 27.3685 6.24125C27.3685 6.67931 27.1985 7.0897 26.8906 7.39865ZM6.66595 27.5323H24.2645C25.4777 27.5323 26.4638 26.5074 26.4624 25.2921V14.3998C26.4624 13.9948 26.7907 13.6664 27.1957 13.6664C27.6007 13.6664 27.929 13.9948 27.929 14.3998V25.2921C27.929 27.3157 26.2847 29 24.2631 29H6.66595C4.64431 29 3 27.3171 3 25.2921V7.666C3 5.64102 4.64431 4.02987 6.66595 4.02987H17.5745C17.9798 4.02987 18.3083 4.35842 18.3083 4.76372C18.3083 5.16901 17.9798 5.49756 17.5745 5.49756H6.66595C5.45269 5.49756 4.46666 6.44936 4.46666 7.66462V25.2921C4.46666 26.5074 5.45269 27.5323 6.66595 27.5323Z" fill="#121213"/>
<path d="M28.0441 3.92799L27.8669 4.10436L27.8672 4.10469L28.0441 3.92799ZM23.43 3.92799L23.6071 4.10447L23.43 3.92799ZM28.0441 8.55605L27.867 8.37957L28.0441 8.55605ZM17.1018 19.5352L17.2788 19.7117L17.2788 19.7117L17.1018 19.5352ZM16.7234 19.7504L16.6638 19.5076L16.6626 19.5079L16.7234 19.7504ZM12.1093 20.9078L12.0485 20.6653L12.0472 20.6656L12.1093 20.9078ZM11.3357 20.6926L11.158 20.8684L11.1586 20.8691L11.3357 20.6926ZM11.1213 19.9148L10.8787 19.8545L10.8786 19.8547L11.1213 19.9148ZM12.2732 15.2868L12.5158 15.3472L12.516 15.3466L12.2732 15.2868ZM12.4877 14.9071L12.6648 15.0836L12.6648 15.0836L12.4877 14.9071ZM16.1091 18.2179L16.1699 18.4604L16.2372 18.4435L16.2862 18.3944L16.1091 18.2179ZM13.0331 18.9895L12.7905 18.9291L12.6897 19.3334L13.0939 19.232L13.0331 18.9895ZM25.1611 9.13552L25.3381 9.312L25.514 9.13552L25.3381 8.95904L25.1611 9.13552ZM22.854 6.82072L23.0311 6.64424L22.854 6.46657L22.677 6.64424L22.854 6.82072ZM13.8021 15.9031L13.625 15.7267L13.5762 15.7756L13.5595 15.8427L13.8021 15.9031ZM26.3146 7.97658L26.1375 8.15306L26.3146 8.33073L26.4917 8.15306L26.3146 7.97658ZM26.8906 7.39865L27.0677 7.57513L26.8906 7.39865ZM24.0076 5.66178L23.8305 5.48531L23.6546 5.66178L23.8305 5.83826L24.0076 5.66178ZM24.5835 5.08385L24.7606 5.26033L24.5835 5.08385ZM26.8906 5.08385L26.7135 5.26033L26.8906 5.08385ZM26.4624 25.2921H26.2124V25.2924L26.4624 25.2921ZM28.2213 3.75162C26.8919 2.41606 24.5838 2.41622 23.253 3.75151L23.6071 4.10447C24.7426 2.96511 26.7331 2.96527 27.8669 4.10436L28.2213 3.75162ZM29.25 6.24125C29.25 5.30069 28.8853 4.41627 28.221 3.75129L27.8672 4.10469C28.4376 4.67551 28.75 5.43265 28.75 6.24125H29.25ZM28.2212 8.73253C28.8837 8.06775 29.25 7.18196 29.25 6.24125H28.75C28.75 7.04971 28.4361 7.80856 27.867 8.37957L28.2212 8.73253ZM17.2788 19.7117L28.2212 8.73253L27.867 8.37957L16.9247 19.3587L17.2788 19.7117ZM16.783 19.9932C16.9732 19.9465 17.1436 19.8474 17.2788 19.7117L16.9247 19.3587C16.8516 19.432 16.7616 19.4836 16.6638 19.5076L16.783 19.9932ZM12.1701 21.1503L16.7842 19.9929L16.6626 19.5079L12.0485 20.6653L12.1701 21.1503ZM11.9117 21.1824C11.9973 21.1824 12.0841 21.1723 12.1715 21.1499L12.0472 20.6656C12.0028 20.677 11.9579 20.6824 11.9117 20.6824V21.1824ZM11.1586 20.8691C11.3606 21.0717 11.6328 21.1824 11.9117 21.1824V20.6824C11.7647 20.6824 11.6202 20.6239 11.5128 20.5161L11.1586 20.8691ZM10.8786 19.8547C10.7887 20.2176 10.8946 20.6021 11.158 20.8684L11.5135 20.5168C11.3724 20.3742 11.316 20.1684 11.3639 19.975L10.8786 19.8547ZM12.0306 15.2264L10.8787 19.8545L11.3638 19.9752L12.5158 15.3472L12.0306 15.2264ZM12.3106 14.7307C12.1749 14.8668 12.0768 15.0392 12.0305 15.227L12.516 15.3466C12.5402 15.2485 12.5922 15.1565 12.6648 15.0836L12.3106 14.7307ZM23.253 3.75151L12.3106 14.7307L12.6648 15.0836L23.6071 4.10447L23.253 3.75151ZM16.0483 17.9755L12.9722 18.747L13.0939 19.232L16.1699 18.4604L16.0483 17.9755ZM24.984 8.95904L15.932 18.0415L16.2862 18.3944L25.3381 9.312L24.984 8.95904ZM22.677 6.9972L24.984 9.312L25.3381 8.95904L23.0311 6.64424L22.677 6.9972ZM13.9791 16.0796L23.0311 6.9972L22.677 6.64424L13.625 15.7267L13.9791 16.0796ZM13.2756 19.05L14.0447 15.9636L13.5595 15.8427L12.7905 18.9291L13.2756 19.05ZM26.4917 8.15306L27.0677 7.57513L26.7135 7.22217L26.1375 7.8001L26.4917 8.15306ZM23.8305 5.83826L26.1375 8.15306L26.4917 7.8001L24.1846 5.48531L23.8305 5.83826ZM24.4065 4.90737L23.8305 5.48531L24.1846 5.83826L24.7606 5.26033L24.4065 4.90737ZM27.0677 4.90737C26.3541 4.19145 25.12 4.19145 24.4065 4.90737L24.7606 5.26033C25.2787 4.74047 26.1954 4.74047 26.7135 5.26033L27.0677 4.90737ZM27.6185 6.24125C27.6185 5.73701 27.4222 5.26316 27.0677 4.90737L26.7135 5.26033C26.9747 5.52244 27.1185 5.86938 27.1185 6.24125H27.6185ZM27.0677 7.57513C27.4222 7.21934 27.6185 6.7455 27.6185 6.24125H27.1185C27.1185 6.61313 26.9747 6.96006 26.7135 7.22217L27.0677 7.57513ZM24.2645 27.2823H6.66595V27.7823H24.2645V27.2823ZM26.2124 25.2924C26.2136 26.3752 25.3339 27.2823 24.2645 27.2823V27.7823C25.6215 27.7823 26.7139 26.6396 26.7124 25.2919L26.2124 25.2924ZM26.2124 14.3998V25.2921H26.7124V14.3998H26.2124ZM27.1957 13.4164C26.6526 13.4164 26.2124 13.8567 26.2124 14.3998H26.7124C26.7124 14.1328 26.9288 13.9164 27.1957 13.9164V13.4164ZM28.179 14.3998C28.179 13.8567 27.7388 13.4164 27.1957 13.4164V13.9164C27.4626 13.9164 27.679 14.1328 27.679 14.3998H28.179ZM28.179 25.2921V14.3998H27.679V25.2921H28.179ZM24.2631 29.25C26.4264 29.25 28.179 27.4502 28.179 25.2921H27.679C27.679 27.1813 26.1431 28.75 24.2631 28.75V29.25ZM6.66595 29.25H24.2631V28.75H6.66595V29.25ZM2.75 25.2921C2.75 27.4516 4.5027 29.25 6.66595 29.25V28.75C4.78591 28.75 3.25 27.1826 3.25 25.2921H2.75ZM2.75 7.666V25.2921H3.25V7.666H2.75ZM6.66595 3.77987C4.50906 3.77987 2.75 5.50015 2.75 7.666H3.25C3.25 5.7819 4.77956 4.27987 6.66595 4.27987V3.77987ZM17.5745 3.77987H6.66595V4.27987H17.5745V3.77987ZM18.5583 4.76372C18.5583 4.22035 18.1178 3.77987 17.5745 3.77987V4.27987C17.8417 4.27987 18.0583 4.49649 18.0583 4.76372H18.5583ZM17.5745 5.74756C18.1178 5.74756 18.5583 5.30708 18.5583 4.76372H18.0583C18.0583 5.03094 17.8417 5.24756 17.5745 5.24756V5.74756ZM6.66595 5.74756H17.5745V5.24756H6.66595V5.74756ZM4.71666 7.66462C4.71666 6.59237 5.58577 5.74756 6.66595 5.74756V5.24756C5.31962 5.24756 4.21666 6.30634 4.21666 7.66462H4.71666ZM4.71666 25.2921V7.66462H4.21666V25.2921H4.71666ZM6.66595 27.2823C5.59655 27.2823 4.71666 26.3752 4.71666 25.2921H4.21666C4.21666 26.6396 5.30883 27.7823 6.66595 27.7823V27.2823Z" fill="#121213"/>
</svg>
