<svg width="22" height="22" viewBox="0 0 22 22" fill="none" xmlns="http://www.w3.org/2000/svg">
<path d="M20.1667 10.1667H11.8333V1.83333C11.8333 1.37333 11.46 1 11 1C10.54 1 10.1667 1.37333 10.1667 1.83333V10.1667H1.83333C1.37333 10.1667 1 10.54 1 11C1 11.46 1.37333 11.8333 1.83333 11.8333H10.1667V20.1667C10.1667 20.6267 10.54 21 11 21C11.46 21 11.8333 20.6267 11.8333 20.1667V11.8333H20.1667C20.6267 11.8333 21 11.46 21 11C21 10.54 20.6267 10.1667 20.1667 10.1667Z" fill="white" stroke="white" stroke-width="0.5"/>
</svg>
