<svg width="17" height="26" viewBox="0 0 17 26" fill="none" xmlns="http://www.w3.org/2000/svg">
<path id="Combined Shape" fill-rule="evenodd" clip-rule="evenodd" d="M13.1582 13.0667C13.1582 14.4667 12.71 15.6333 11.8136 16.6333C10.9171 17.6 9.82862 18.1 8.58004 18.1C7.33145 18.1 6.24294 17.6333 5.34652 16.6333C4.45009 15.6333 3.90584 14.3667 3.90584 13V5C3.90584 3.6 4.45009 2.46667 5.34652 1.46667C6.24294 0.5 7.29943 0 8.58004 0C9.82862 0 10.9171 0.466667 11.8136 1.46667C12.71 2.46667 13.1582 3.66667 13.1582 5.03333V13.0667ZM0.960452 10.0667C1.21657 10.0667 1.44068 10.1667 1.63277 10.3667C1.82486 10.5667 1.9209 10.8 1.88889 11.0667V13.0667C1.88889 15 2.52919 16.6333 3.80979 18C5.12241 19.3667 6.65913 20.0333 8.48399 20.0333C10.3089 20.0333 11.8776 19.3667 13.1582 18C14.4388 16.6333 15.0791 15 15.0791 13.0667V11.0667C15.0791 10.8 15.1751 10.5667 15.3672 10.3667C15.5593 10.1667 15.7834 10.0667 16.0395 10.0667C16.2957 10.0667 16.5198 10.1667 16.7119 10.3667C16.904 10.5667 17 10.8 17 11.0667V13.0667C17 15.3333 16.2637 17.3333 14.823 19.0333C13.3823 20.7333 11.4614 21.7667 9.31638 22V24H13.2222C13.4783 24 13.7024 24.1 13.8625 24.3C14.0546 24.5 14.1507 24.7333 14.1507 25C14.1507 25.2667 14.0546 25.5 13.8625 25.7C13.6704 25.9 13.4463 26 13.1902 26H3.77778C3.52166 26 3.29755 25.9 3.10546 25.7C2.91337 25.5 2.81733 25.2667 2.81733 25C2.81733 24.7333 2.91337 24.5 3.10546 24.3C3.29755 24.1 3.52166 24 3.77778 24H7.68362V22C5.57062 21.7333 3.6177 20.7333 2.17702 19.0333C0.736346 17.3667 0 15.3667 0 13.0667V11.0667C0 10.8 0.0960452 10.5667 0.288136 10.3667C0.480226 10.1667 0.704331 10.0667 0.960452 10.0667Z" fill="#2A87FF"/>
</svg>
